<?xml version="1.0" encoding="UTF-8"?>
<!DOCTYPE svg PUBLIC "-//W3C//DTD SVG 1.1//EN" "http://www.w3.org/Graphics/SVG/1.1/DTD/svg11.dtd">
<!-- Creator: CorelDRAW -->
<svg xmlns="http://www.w3.org/2000/svg" xml:space="preserve" width="2.58477in" height="0.856213in" style="shape-rendering:geometricPrecision; text-rendering:geometricPrecision; image-rendering:optimizeQuality; fill-rule:evenodd; clip-rule:evenodd"
viewBox="0 0 4.40307 1.45853"
 xmlns:xlink="http://www.w3.org/1999/xlink">
 <defs>
  <style type="text/css">
   <![CDATA[
    .fil0 {fill:#1D1819}
   ]]>
  </style>
 </defs>
 <g id="Layer_x0020_1">
  <metadata id="CorelCorpID_0Corel-Layer"/>
  <path class="fil0" d="M2.20154 1.45853c0.113334,-0.369492 0.548511,-0.620144 1.11269,-0.620144l0.409061 0c-0.0957565,-0.381497 0.130845,-0.66096 0.679785,-0.838389l-1.40308 0 -0.0240967 0.0898681c-0.041118,0.153473 -0.175491,0.256573 -0.33437,0.256573l-0.252147 0c-0.0371678,-0.0707611 -0.0600574,-0.165371 -0.0686686,-0.283802 -0.0151502,0.0622504 -0.0256459,0.114729 -0.0314874,0.157437 -0.0557048,-0.0221585 -0.119665,-0.0221451 -0.17537,0 -0.00584143,-0.0427075 -0.0163372,-0.0951864 -0.0314807,-0.157437 -0.00861795,0.118431 -0.0315008,0.213041 -0.0686753,0.283802l-0.252147 0c-0.158879,0 -0.293252,-0.1031 -0.33437,-0.256573l-0.02409 -0.0898681 -1.40309 0c0.54894,0.177429 0.775542,0.456892 0.679785,0.838389l0.409061 0c0.564177,0 0.999353,0.250652 1.11269,0.620144z"/>
 </g>
</svg>
